<?xml version="1.0" standalone="no"?><!DOCTYPE svg PUBLIC "-//W3C//DTD SVG 1.1//EN" "http://www.w3.org/Graphics/SVG/1.1/DTD/svg11.dtd"><svg t="1608220099829" class="icon" viewBox="0 0 1024 1024" version="1.1" xmlns="http://www.w3.org/2000/svg" p-id="782" xmlns:xlink="http://www.w3.org/1999/xlink" width="200" height="200"><defs><style type="text/css"></style></defs><path d="M1003.633209 908.620231h-184.184036V485.488071h87.676587c9.920284 0 17.96096-8.040676 17.96096-17.96096V405.494898h80.576284c9.920284 0 17.960391-8.040676 17.960392-17.960391 0-6.280533-3.222187-11.808427-8.103254-15.018098L522.716729 4.775822a17.968924 17.968924 0 0 0-21.485227 0L7.595804 373.138773a17.961529 17.961529 0 0 0 10.742329 32.356125h80.525654v62.032782c0 9.920284 8.041244 17.96096 17.96096 17.96096h87.674311v423.131591H20.320142c-9.920284 0-17.96096 8.0384-17.96096 17.96096v78.247822c0 9.918009 8.040676 17.96096 17.96096 17.96096h983.313067c9.920284 0 17.96096-8.04352 17.96096-17.96096v-78.247822c0-9.923129-8.040676-17.96096-17.96096-17.96096zM511.973262 41.582364l439.538916 327.991183H72.438329l439.534933-327.991183z m229.23264 866.430863V493.313707h42.32192v414.69952h-42.32192z m-35.921351 0.607004H569.059556V485.488071h136.224995v423.13216zM490.810596 493.313707h42.32704v414.69952h-42.32704V493.313707zM134.785138 407.240249h754.380231v42.326471H134.785138v-42.326471z m147.961742 86.073458v414.69952h-42.326471V493.313707h42.326471z m35.92192-7.825636h136.219876v423.131591H318.6688V485.488071z m667.004018 501.379982H38.280533v-42.325902h947.392285v42.325902z" p-id="783"></path><path d="M511.998862 323.378062c-47.630791 0-86.381796-38.750436-86.381795-86.382933s38.751004-86.382933 86.381795-86.382933c47.634773 0 86.385209 38.750436 86.385209 86.382933S559.633067 323.378062 511.998862 323.378062z m0-136.843378c-27.823218 0-50.459876 22.636658-50.459875 50.461014s22.636658 50.461013 50.459875 50.461013c27.8272 0 50.463858-22.636658 50.463858-50.461013s-22.637227-50.461013-50.463858-50.461014z" p-id="784"></path></svg>